<?xml version="1.0" standalone="no"?>
<!DOCTYPE svg PUBLIC "-//W3C//DTD SVG 20010904//EN"
 "http://www.w3.org/TR/2001/REC-SVG-20010904/DTD/svg10.dtd">
<svg version="1.0" xmlns="http://www.w3.org/2000/svg"
 width="700.000000pt" height="700.000000pt" viewBox="0 0 700.000000 700.000000"
 preserveAspectRatio="xMidYMid meet">
<metadata>
Created by potrace 1.11, written by Peter Selinger 2001-2013
</metadata>
<g transform="translate(0.000000,700.000000) scale(0.100000,-0.100000)"
fill="#000000" stroke="none">
<path d="M2800 6277 l0 -722 -62 -24 c-185 -70 -379 -177 -538 -297 -93 -70
-107 -81 -200 -169 -50 -47 -177 -185 -199 -219 -8 -11 -18 -23 -22 -26 -4 -3
-42 -57 -84 -120 -63 -95 -174 -302 -206 -385 -59 -152 -111 -336 -125 -440
-3 -27 -8 -52 -9 -55 -21 -35 -26 -479 -6 -600 6 -41 14 -91 17 -110 22 -147
114 -421 194 -579 107 -214 284 -454 438 -595 25 -22 55 -50 66 -61 48 -47
208 -165 301 -222 111 -68 277 -150 373 -184 l62 -22 0 -723 0 -724 700 0 700
0 0 724 0 723 43 17 c23 9 46 16 50 16 4 0 46 18 93 40 47 22 88 40 89 40 2 0
55 30 117 67 508 301 862 770 1007 1333 16 63 32 133 35 155 9 65 18 119 23
140 3 11 6 106 8 210 2 169 -1 232 -20 353 -3 17 -8 49 -11 70 -11 71 -65 268
-104 373 -117 320 -323 621 -585 855 -75 67 -267 214 -279 214 -3 0 -31 16
-62 36 -67 43 -254 133 -341 164 l-63 23 0 723 0 724 -700 0 -700 0 0 -723z
m920 -1467 c197 -38 348 -96 501 -195 242 -156 431 -394 528 -665 38 -108 49
-151 70 -285 13 -85 6 -315 -14 -415 -62 -313 -238 -602 -487 -796 -54 -42
-220 -149 -226 -145 -1 1 -15 -5 -32 -14 -73 -38 -239 -88 -365 -111 -72 -13
-298 -12 -385 2 -432 67 -801 331 -989 709 -77 154 -104 232 -132 385 -15 80
-20 296 -9 370 30 198 56 287 133 442 186 376 549 646 963 717 125 21 339 22
444 1z"/>
</g>
</svg>
