<?xml version="1.0" standalone="no"?>
<!DOCTYPE svg PUBLIC "-//W3C//DTD SVG 20010904//EN"
 "http://www.w3.org/TR/2001/REC-SVG-20010904/DTD/svg10.dtd">
<svg version="1.0" xmlns="http://www.w3.org/2000/svg"
 width="700.000000pt" height="700.000000pt" viewBox="0 0 700.000000 700.000000"
 preserveAspectRatio="xMidYMid meet">
<metadata>
Created by potrace 1.11, written by Peter Selinger 2001-2013
</metadata>
<g transform="translate(0.000000,700.000000) scale(0.100000,-0.100000)"
fill="#000000" stroke="none">
<path d="M2518 6178 l-3 -821 -108 -66 c-173 -106 -339 -246 -491 -414 -48
-52 -148 -188 -199 -270 -47 -76 -112 -199 -116 -222 -1 -5 -8 -17 -16 -25 -7
-8 -18 -31 -23 -50 -6 -19 -24 -71 -41 -115 -28 -75 -74 -243 -85 -310 -2 -16
-7 -49 -11 -73 -4 -23 -9 -54 -11 -70 -2 -15 -6 -111 -8 -213 -3 -206 13 -357
59 -542 118 -469 389 -873 786 -1174 42 -32 120 -83 172 -113 l96 -55 1 -822
0 -823 280 0 280 0 0 721 0 721 43 -7 c23 -3 80 -12 127 -19 116 -17 437 -13
560 8 52 9 98 16 103 16 4 0 7 -324 7 -720 l0 -720 280 0 280 0 2 822 3 821
101 62 c351 215 619 508 797 870 65 131 134 322 153 419 2 10 8 33 13 50 5 17
17 83 27 146 22 139 24 474 5 590 -7 41 -15 89 -17 105 -11 66 -57 236 -91
330 -95 267 -286 569 -479 759 -129 128 -259 230 -408 321 l-101 62 -3 821 -2
822 -280 0 -280 0 0 -720 c0 -569 -3 -720 -12 -720 -7 0 -53 8 -103 17 -125
23 -483 23 -610 0 -49 -10 -96 -17 -102 -17 -10 0 -13 151 -13 720 l0 720
-280 0 -280 0 -2 -822z m1227 -1302 c498 -93 887 -420 1068 -896 60 -160 82
-293 81 -500 -2 -277 -75 -517 -230 -750 -68 -103 -86 -126 -172 -214 -57 -58
-213 -186 -228 -186 -4 0 -15 -6 -23 -14 -26 -23 -144 -83 -226 -116 -87 -35
-233 -74 -315 -85 -77 -11 -301 -13 -358 -5 -26 5 -69 11 -96 14 -27 4 -53 9
-58 12 -5 3 -21 7 -36 10 -79 14 -255 86 -357 147 -233 139 -424 342 -540 572
-67 133 -118 284 -131 384 -2 20 -7 47 -10 61 -10 46 -11 294 -2 365 11 86 56
269 74 304 8 14 14 31 14 38 0 29 108 222 175 312 97 133 269 292 381 355 16
9 43 25 59 36 47 29 234 107 300 125 86 23 152 36 215 42 30 3 57 7 59 9 9 8
287 -7 356 -20z"/>
</g>
</svg>
